<svg width="272" height="80" viewBox="0 0 272 80" fill="none" xmlns="http://www.w3.org/2000/svg">
<g filter="url(#filter0_d_1828_9047)">
<path d="M64.5869 55.1328H19.6636C18.9276 55.1332 18.2052 54.9325 17.5726 54.552C16.94 54.1715 16.4206 53.6252 16.0694 52.9708C15.7182 52.3164 15.5481 51.5782 15.5772 50.8341C15.6062 50.09 15.8332 49.3677 16.2343 48.7433L38.7144 13.7521C39.0853 13.1735 39.5933 12.6979 40.1922 12.3686C40.7912 12.0394 41.462 11.8669 42.1436 11.8669C42.8253 11.8669 43.4961 12.0394 44.095 12.3686C44.6939 12.6979 45.2019 13.1735 45.5728 13.7521L48.2255 17.8877L49.4517 19.7736L50.1751 20.8984L52.4926 24.5129L53.2161 25.6378L55.6112 29.3598L56.3347 30.4888L68.0243 48.6854C68.4412 49.311 68.681 50.0401 68.7178 50.7938C68.7545 51.5474 68.5868 52.2969 68.2327 52.961C67.8786 53.625 67.3518 54.1785 66.7091 54.5613C66.0665 54.9441 65.3326 55.1417 64.5869 55.1328Z" fill="url(#paint0_linear_1828_9047)"/>
<path d="M64.5869 55.1328H19.6636C18.9276 55.1332 18.2052 54.9325 17.5726 54.552C16.94 54.1715 16.4206 53.6252 16.0694 52.9708C15.7182 52.3164 15.5481 51.5782 15.5772 50.8341C15.6062 50.09 15.8332 49.3677 16.2343 48.7433L38.7144 13.7521C39.0853 13.1735 39.5933 12.6979 40.1922 12.3686C40.7912 12.0394 41.462 11.8669 42.1436 11.8669C42.8253 11.8669 43.4961 12.0394 44.095 12.3686C44.6939 12.6979 45.2019 13.1735 45.5728 13.7521L48.2255 17.8877L49.4517 19.7736L50.1751 20.8984L52.4926 24.5129L53.2161 25.6378L55.6112 29.3598L56.3347 30.4888L68.0243 48.6854C68.4412 49.311 68.681 50.0401 68.7178 50.7938C68.7545 51.5474 68.5868 52.2969 68.2327 52.961C67.8786 53.625 67.3518 54.1785 66.7091 54.5613C66.0665 54.9441 65.3326 55.1417 64.5869 55.1328Z" fill="url(#paint1_linear_1828_9047)"/>
<path d="M40.6968 29.6121L33.0944 41.4564C32.8778 40.6476 32.7692 39.8131 32.7715 38.9751C32.7738 36.7151 33.5734 34.5302 35.0263 32.8137C36.4793 31.0972 38.4901 29.9618 40.6968 29.6121Z" fill="white"/>
<path d="M44.4489 29.7942C45.0651 29.954 45.6636 30.1771 46.235 30.46L36.1027 46.2497C35.6154 45.8353 35.1704 45.3725 34.7743 44.8684L28.1856 55.1329H26.7346L34.0345 43.7642L43.1491 29.5585L49.4231 19.7861L50.1466 20.911L44.4489 29.7942Z" fill="white"/>
<path d="M48.8713 32.4078C49.3616 32.9197 49.7935 33.4857 50.1588 34.0951L40.9829 48.3919C40.2851 48.3083 39.5993 48.1432 38.9392 47.8997L34.2961 55.1329H32.8451L37.8111 47.3952L47.9721 31.5683L52.4886 24.5378L53.212 25.6668L48.8713 32.4078Z" fill="white"/>
<path d="M51.4583 38.1232C51.4864 38.409 51.5 38.6961 51.4992 38.9834C51.4992 40.9641 50.8862 42.8951 49.7464 44.5053C48.6065 46.1156 46.9969 47.3243 45.1435 47.9617L40.5412 55.1328H39.0902L43.4268 48.3753L51.1354 36.3821L55.6028 29.4219L56.3263 30.5551L51.4583 38.1232Z" fill="white"/>
<path d="M124.584 18.3908V54.1125H118.184V32.1773C118.184 31.7177 118.192 31.2254 118.209 30.7002C118.241 30.175 118.289 29.6416 118.353 29.1L108.331 48.4748C107.783 49.5416 106.938 50.075 105.795 50.075H104.781C104.217 50.075 103.718 49.9437 103.283 49.6811C102.849 49.4021 102.502 49 102.245 48.4748L92.174 29.0261C92.2223 29.6005 92.2626 30.1586 92.2948 30.7002C92.327 31.2254 92.3431 31.7177 92.3431 32.1773V54.1125H85.9431V18.3908H91.4495C91.7554 18.3908 92.0291 18.3991 92.2706 18.4155C92.5121 18.4319 92.7214 18.4811 92.8985 18.5632C93.0917 18.6288 93.2608 18.7437 93.4057 18.9078C93.5667 19.0556 93.7197 19.2689 93.8646 19.5479L103.67 38.6028C103.976 39.1772 104.257 39.768 104.515 40.3753C104.789 40.9826 105.046 41.6062 105.288 42.2463C105.529 41.5898 105.779 40.9497 106.037 40.3261C106.31 39.7024 106.6 39.1033 106.906 38.5289L116.639 19.5479C116.784 19.2689 116.937 19.0556 117.098 18.9078C117.259 18.7437 117.428 18.6288 117.605 18.5632C117.798 18.4811 118.007 18.4319 118.233 18.4155C118.474 18.3991 118.756 18.3908 119.078 18.3908H124.584Z" fill="#C21395"/>
<path d="M152.353 28.7307V54.1125H148.248C147.394 54.1125 146.847 53.7186 146.605 52.9308L146.171 51.1583C145.671 51.6506 145.156 52.102 144.625 52.5123C144.094 52.9226 143.522 53.2755 142.91 53.5709C142.314 53.8663 141.662 54.0961 140.954 54.2602C140.262 54.4243 139.505 54.5064 138.684 54.5064C137.331 54.5064 136.124 54.2684 135.061 53.7925C134.015 53.3165 133.137 52.6518 132.429 51.7984C131.72 50.9449 131.181 49.9273 130.811 48.7456C130.44 47.5639 130.255 46.2674 130.255 44.8559V28.7307H136.921V44.8559C136.921 46.2674 137.235 47.367 137.863 48.1548C138.507 48.9262 139.457 49.3119 140.712 49.3119C141.646 49.3119 142.524 49.1067 143.345 48.6964C144.166 48.2697 144.947 47.6952 145.688 46.9731V28.7307H152.353Z" fill="#C21395"/>
<path d="M173.336 33.9498C173.159 34.2288 172.973 34.434 172.78 34.5653C172.603 34.6802 172.353 34.7376 172.031 34.7376C171.709 34.7376 171.379 34.6556 171.041 34.4914C170.703 34.3273 170.325 34.155 169.906 33.9745C169.488 33.7775 169.005 33.597 168.457 33.4328C167.926 33.2687 167.306 33.1867 166.598 33.1867C165.519 33.1867 164.682 33.4164 164.086 33.876C163.49 34.3191 163.192 34.91 163.192 35.6485C163.192 36.1573 163.361 36.584 163.699 36.9287C164.038 37.2733 164.48 37.577 165.028 37.8396C165.591 38.0858 166.227 38.3237 166.936 38.5535C167.644 38.7669 168.369 39.0049 169.109 39.2675C169.866 39.5301 170.599 39.8337 171.307 40.1784C172.015 40.523 172.643 40.9579 173.191 41.4831C173.754 41.9919 174.205 42.6156 174.543 43.3542C174.881 44.0763 175.05 44.9544 175.05 45.9883C175.05 47.2193 174.825 48.3599 174.374 49.4103C173.939 50.4443 173.295 51.3388 172.442 52.0938C171.589 52.8487 170.526 53.4396 169.254 53.8663C167.982 54.293 166.517 54.5064 164.859 54.5064C164.005 54.5064 163.16 54.4243 162.323 54.2602C161.486 54.1125 160.689 53.8991 159.932 53.6201C159.175 53.3247 158.467 52.9883 157.807 52.6108C157.147 52.2333 156.575 51.823 156.092 51.3798L157.638 48.8441C157.815 48.5487 158.032 48.3189 158.29 48.1548C158.563 47.9907 158.91 47.9086 159.328 47.9086C159.731 47.9086 160.101 48.0153 160.439 48.2286C160.777 48.4256 161.156 48.6472 161.574 48.8933C161.993 49.1231 162.484 49.3447 163.047 49.5581C163.627 49.755 164.343 49.8535 165.197 49.8535C165.841 49.8535 166.396 49.7796 166.863 49.6319C167.33 49.4842 167.708 49.2873 167.998 49.0411C168.288 48.7785 168.497 48.4912 168.626 48.1794C168.771 47.8512 168.844 47.5147 168.844 47.17C168.844 46.612 168.666 46.1607 168.312 45.816C167.974 45.4549 167.523 45.1431 166.96 44.8805C166.412 44.6179 165.776 44.3799 165.052 44.1666C164.327 43.9532 163.587 43.7152 162.83 43.4526C162.089 43.19 161.357 42.8782 160.632 42.5171C159.924 42.156 159.288 41.7047 158.724 41.1631C158.177 40.6051 157.726 39.924 157.372 39.1197C157.034 38.3155 156.865 37.339 156.865 36.1901C156.865 35.1397 157.066 34.1468 157.469 33.2113C157.871 32.2594 158.475 31.4223 159.28 30.7002C160.085 29.978 161.083 29.4036 162.275 28.9769C163.482 28.5501 164.875 28.3368 166.453 28.3368C168.224 28.3368 169.834 28.6322 171.283 29.2231C172.732 29.8139 173.923 30.5853 174.857 31.5372L173.336 33.9498Z" fill="#C21395"/>
<path d="M195.017 38.4304C195.017 37.7247 194.921 37.0518 194.728 36.4117C194.55 35.7716 194.261 35.2054 193.858 34.713C193.456 34.2206 192.948 33.8349 192.337 33.5559C191.725 33.2605 190.992 33.1128 190.139 33.1128C188.545 33.1128 187.297 33.5723 186.396 34.4914C185.494 35.4105 184.906 36.7235 184.632 38.4304H195.017ZM184.536 42.4679C184.745 44.8477 185.405 46.5874 186.516 47.687C187.643 48.7867 189.108 49.3365 190.912 49.3365C191.829 49.3365 192.618 49.2298 193.278 49.0164C193.955 48.7867 194.542 48.5405 195.041 48.2779C195.557 47.9989 196.016 47.7527 196.418 47.5393C196.837 47.3096 197.247 47.1947 197.65 47.1947C198.165 47.1947 198.567 47.3916 198.857 47.7855L200.789 50.2474C200.081 51.0844 199.3 51.7819 198.447 52.34C197.593 52.8816 196.708 53.3165 195.79 53.6447C194.872 53.9566 193.947 54.1699 193.013 54.2848C192.079 54.4161 191.177 54.4818 190.308 54.4818C188.569 54.4818 186.943 54.1946 185.429 53.6201C183.932 53.0293 182.62 52.1676 181.493 51.0352C180.382 49.8863 179.504 48.4666 178.86 46.7761C178.216 45.0857 177.894 43.1244 177.894 40.8923C177.894 39.169 178.168 37.5442 178.716 36.0178C179.279 34.4914 180.084 33.162 181.131 32.0296C182.177 30.8971 183.449 30.0026 184.946 29.3461C186.444 28.6732 188.134 28.3368 190.018 28.3368C191.612 28.3368 193.077 28.5994 194.414 29.1246C195.766 29.6334 196.925 30.3801 197.891 31.3649C198.873 32.3496 199.63 33.5641 200.161 35.0084C200.709 36.4363 200.983 38.0694 200.983 39.9075C200.983 40.4163 200.958 40.8348 200.91 41.1631C200.862 41.4913 200.781 41.7539 200.669 41.9509C200.556 42.1478 200.403 42.2873 200.21 42.3694C200.017 42.4351 199.767 42.4679 199.461 42.4679H184.536Z" fill="#C21395"/>
<path d="M213.33 54.1125H206.036V18.3908H213.33V54.1125Z" fill="#C21395"/>
<path d="M226.045 36.2394C226.045 38.1268 226.286 39.8173 226.769 41.3108C227.252 42.7879 227.944 44.0435 228.846 45.0775C229.764 46.1114 230.875 46.9074 232.179 47.4655C233.483 48.0071 234.956 48.2779 236.598 48.2779C238.241 48.2779 239.706 48.0071 240.994 47.4655C242.298 46.9074 243.401 46.1114 244.303 45.0775C245.22 44.0435 245.921 42.7879 246.404 41.3108C246.887 39.8173 247.128 38.1268 247.128 36.2394C247.128 34.3683 246.887 32.6943 246.404 31.2172C245.921 29.7236 245.22 28.4599 244.303 27.4259C243.401 26.3755 242.298 25.5795 240.994 25.0379C239.706 24.4799 238.241 24.2008 236.598 24.2008C234.956 24.2008 233.483 24.4799 232.179 25.0379C230.875 25.5795 229.764 26.3755 228.846 27.4259C227.944 28.4599 227.252 29.7236 226.769 31.2172C226.286 32.6943 226.045 34.3683 226.045 36.2394ZM256.426 60.9565H250.461C249.592 60.9565 248.811 60.8416 248.118 60.6118C247.442 60.3821 246.814 59.9553 246.235 59.3317L241.477 53.9402C239.915 54.3177 238.289 54.5064 236.598 54.5064C233.91 54.5064 231.462 54.0469 229.257 53.1278C227.051 52.1923 225.159 50.9121 223.581 49.2872C222.003 47.6624 220.78 45.734 219.91 43.5019C219.057 41.2698 218.63 38.8489 218.63 36.2394C218.63 33.6298 219.057 31.2172 219.91 29.0015C220.78 26.7694 222.003 24.8409 223.581 23.2161C225.159 21.5913 227.051 20.3193 229.257 19.4002C231.462 18.4647 233.91 17.9969 236.598 17.9969C239.287 17.9969 241.735 18.4647 243.94 19.4002C246.146 20.3193 248.03 21.5995 249.592 23.2407C251.169 24.8656 252.385 26.794 253.238 29.0261C254.108 31.2418 254.542 33.6462 254.542 36.2394C254.542 37.815 254.381 39.3249 254.059 40.7692C253.754 42.1971 253.303 43.5429 252.707 44.8067C252.111 46.054 251.379 47.2111 250.509 48.2779C249.64 49.3447 248.658 50.2802 247.563 51.0844L256.426 60.9565Z" fill="#C21395"/>
</g>
<defs>
<filter id="filter0_d_1828_9047" x="-12" y="-10" width="296" height="95" filterUnits="userSpaceOnUse" color-interpolation-filters="sRGB">
<feFlood flood-opacity="0" result="BackgroundImageFix"/>
<feColorMatrix in="SourceAlpha" type="matrix" values="0 0 0 0 0 0 0 0 0 0 0 0 0 0 0 0 0 0 127 0" result="hardAlpha"/>
<feOffset dy="4"/>
<feGaussianBlur stdDeviation="7.5"/>
<feComposite in2="hardAlpha" operator="out"/>
<feColorMatrix type="matrix" values="0 0 0 0 0 0 0 0 0 0 0 0 0 0 0 0 0 0 0.25 0"/>
<feBlend mode="normal" in2="BackgroundImageFix" result="effect1_dropShadow_1828_9047"/>
<feBlend mode="normal" in="SourceGraphic" in2="effect1_dropShadow_1828_9047" result="shape"/>
</filter>
<linearGradient id="paint0_linear_1828_9047" x1="15.5681" y1="33.5037" x2="68.6823" y2="33.5037" gradientUnits="userSpaceOnUse">
<stop stop-color="#FFBD59"/>
<stop offset="1" stop-color="#F7344E"/>
</linearGradient>
<linearGradient id="paint1_linear_1828_9047" x1="15.5681" y1="33.5037" x2="68.6823" y2="33.5037" gradientUnits="userSpaceOnUse">
<stop stop-color="#4682B4"/>
<stop offset="0.714583" stop-color="#C21395"/>
<stop offset="1" stop-color="#FF007F"/>
</linearGradient>
</defs>
</svg>
